<?xml version="1.0" encoding="UTF-8" standalone="no"?>
<!-- Generator: Adobe Illustrator 16.0.3, SVG Export Plug-In . SVG Version: 6.00 Build 0)  -->

<svg
   xmlns:dc="http://purl.org/dc/elements/1.1/"
   xmlns:cc="http://creativecommons.org/ns#"
   xmlns:rdf="http://www.w3.org/1999/02/22-rdf-syntax-ns#"
   xmlns:svg="http://www.w3.org/2000/svg"
   xmlns="http://www.w3.org/2000/svg"
   xmlns:sodipodi="http://sodipodi.sourceforge.net/DTD/sodipodi-0.dtd"
   xmlns:inkscape="http://www.inkscape.org/namespaces/inkscape"
   version="1.1"
   id="Capa_1"
   x="0px"
   y="0px"
   width="123.97888"
   height="49.067554"
   viewBox="0 0 123.97888 49.067554"
   enable-background="new 0 0 841.891 1190.55"
   xml:space="preserve"
   sodipodi:docname="icane.svg"
   inkscape:version="0.92.4 (5da689c313, 2019-01-14)"><metadata
     id="metadata103"><rdf:RDF><cc:Work
         rdf:about=""><dc:format>image/svg+xml</dc:format><dc:type
           rdf:resource="http://purl.org/dc/dcmitype/StillImage" /><dc:title></dc:title></cc:Work></rdf:RDF></metadata><defs
     id="defs101" /><sodipodi:namedview
     pagecolor="#ffffff"
     bordercolor="#666666"
     borderopacity="1"
     objecttolerance="10"
     gridtolerance="10"
     guidetolerance="10"
     inkscape:pageopacity="0"
     inkscape:pageshadow="2"
     inkscape:window-width="2048"
     inkscape:window-height="1088"
     id="namedview99"
     showgrid="false"
     inkscape:zoom="8"
     inkscape:cx="75.562623"
     inkscape:cy="14.211358"
     inkscape:window-x="1920"
     inkscape:window-y="27"
     inkscape:window-maximized="1"
     inkscape:current-layer="g96"
     fit-margin-top="0"
     fit-margin-left="0"
     fit-margin-right="0"
     fit-margin-bottom="0" /><g
     id="g96"
     transform="matrix(0.18473485,0,0,0.18952953,-15.790581,-88.469542)"><path
       d="m 281.08,466.79 c 0,2.478 0,4.956 -10e-4,7.433 -0.005,8.08 -0.012,16.159 -0.018,24.238 0,0.431 0,0.86 0,1.253 -2.336,0.22 -4.557,0.381 -6.764,0.644 -8.748,1.038 -16.938,3.803 -24.468,8.347 -16.66,10.053 -27.219,24.628 -30.792,43.744 -3.615,19.341 0.77,37.021 13.097,52.487 9.83,12.33 22.649,19.912 38.074,23.078 5.259,1.078 10.602,1.285 15.957,1.197 1.641,-0.025 3.281,-0.043 4.919,0.012 0.805,0.027 1.323,-0.24 1.815,-0.879 7.431,-9.654 14.88,-19.295 22.335,-28.932 8.263,-10.68 16.539,-21.349 24.802,-32.03 10.632,-13.742 21.252,-27.494 31.887,-41.235 12.126,-15.671 24.261,-31.333 36.392,-46.999 1.932,-2.494 3.882,-4.976 5.786,-7.49 0.426,-0.563 0.863,-0.792 1.583,-0.788 5.479,0.027 10.959,0.021 16.438,-0.02 0.804,-0.006 1.328,0.244 1.816,0.862 5.076,6.425 10.169,12.838 15.268,19.246 8.905,11.193 17.819,22.379 26.726,33.572 7.86,9.88 15.715,19.767 23.572,29.649 6.737,8.476 13.477,16.949 20.216,25.423 0.17,0.213 0.359,0.408 0.772,0.875 0,-36.698 0,-73.088 0,-109.543 13.448,0 26.714,0 40.084,0 0,63.666 0,127.35 0,191.182 -0.428,0 -0.854,0.002 -1.278,0 -5.279,0 -10.561,-0.018 -15.84,0.014 -0.748,0.004 -1.23,-0.193 -1.705,-0.799 -6.175,-7.852 -12.377,-15.68 -18.575,-23.512 -7.488,-9.461 -14.983,-18.914 -22.471,-28.377 -7.956,-10.059 -15.904,-20.122 -23.856,-30.185 -7.035,-8.901 -14.068,-17.807 -21.106,-26.708 -0.119,-0.148 -0.28,-0.264 -0.622,-0.578 0,36.812 0,73.403 0,110.145 -0.666,0 -1.172,0 -1.678,0 -57.636,0.004 -115.271,0.096 -172.908,-0.041 -17.05,-0.041 -33.018,-4.705 -47.622,-13.504 -22.777,-13.723 -37.731,-33.49 -44.77,-59.168 -1.913,-6.98 -2.9,-14.112 -3.134,-21.354 -0.734,-22.826 5.597,-43.508 19.216,-61.803 13.477,-18.104 31.266,-30.087 53.049,-36.066 6.859,-1.882 13.857,-2.945 20.974,-3.207 0.385,-0.014 0.768,-0.123 1.151,-0.188 0.559,0.005 1.119,0.005 1.679,0.005 z m 133.68,68.439 c -0.073,-0.043 -0.147,-0.086 -0.222,-0.128 -23.604,31.274 -47.207,62.55 -70.95,94.011 23.874,0 47.501,0 71.171,0 10e-4,-31.357 10e-4,-62.62 10e-4,-93.883 z"
       id="path2"
       inkscape:connector-curvature="0" /><path
       d="m 180.639,662.08 c -14.113,0 -28.141,0 -42.196,0 0,-51.232 0,-102.424 0,-153.685 14.127,0 28.109,0 42.196,0 0,51.185 0,102.38 0,153.685 z"
       id="path4"
       inkscape:connector-curvature="0" /><path
       d="m 281.181,608.826 c -23.106,0.117 -42.903,-18.527 -42.925,-42.896 -0.021,-23.979 19.651,-43.65 44.374,-42.903 22.473,0.679 41.65,19.024 41.532,43.212 -0.115,23.807 -19.654,42.761 -42.981,42.587 z"
       id="path6"
       inkscape:connector-curvature="0"
       style="fill:#e42b38" /><path
       d="m 565.006,661.357 c 0,-5.363 0,-10.58 0,-15.865 45.34,0 90.591,0 135.936,0 0.032,0.367 0.09,0.713 0.09,1.059 0.006,4.52 -0.022,9.037 0.024,13.557 0.011,1.018 -0.335,1.27 -1.311,1.268 -44.591,-0.02 -89.182,-0.018 -133.772,-0.018 -0.278,-10e-4 -0.553,-10e-4 -0.967,-10e-4 z"
       id="path8"
       inkscape:connector-curvature="0"
       style="fill:#e42b38" /><path
       d="m 564.994,639.201 c 0,-5.176 0,-10.314 0,-15.535 39.32,0 78.599,0 117.947,0 0,5.178 0,10.314 0,15.535 -39.313,0 -78.592,0 -117.947,0 z"
       id="path10"
       inkscape:connector-curvature="0"
       style="fill:#e42b38" /><path
       d="m 678.148,470.456 c 0,5.29 0,10.427 0,15.7 -0.49,0 -0.919,0 -1.347,0 -36.745,0 -73.491,-0.006 -110.236,0.028 -1.232,10e-4 -1.543,-0.322 -1.521,-1.532 0.074,-4.277 0.07,-8.558 0.002,-12.834 -0.021,-1.145 0.354,-1.385 1.424,-1.383 25.35,0.027 50.7,0.021 76.05,0.021 11.355,0 22.711,0 34.066,0 0.477,0 0.954,0 1.562,0 z"
       id="path12"
       inkscape:connector-curvature="0"
       style="fill:#e42b38" /><path
       d="m 677.965,492.708 c 0,4.991 0.012,9.863 -0.032,14.735 -0.003,0.268 -0.434,0.615 -0.742,0.771 -0.256,0.129 -0.627,0.029 -0.946,0.029 -36.554,0 -73.106,0 -109.659,0 -1.748,0 -1.75,0 -1.75,-1.735 0,-4.199 0.033,-8.398 -0.022,-12.597 -0.015,-1.032 0.338,-1.382 1.302,-1.256 0.118,0.016 0.239,0.002 0.359,0.002 36.793,-0.004 73.587,-0.009 110.38,-0.01 0.312,0 0.628,0.034 1.11,0.061 z"
       id="path14"
       inkscape:connector-curvature="0"
       style="fill:#e42b38" /><path
       d="m 615.886,557.938 c 16.394,0 32.786,0 49.18,0 1.647,0 1.649,0.004 1.649,1.614 10e-4,4.078 10e-4,8.157 0,12.235 0,1.609 -0.002,1.615 -1.649,1.615 -25.789,10e-4 -51.578,0 -77.367,0 -7.037,0 -14.073,-0.023 -21.11,0.022 -1.166,0.008 -1.577,-0.249 -1.55,-1.519 0.094,-4.156 0.094,-8.317 0,-12.474 -0.026,-1.27 0.384,-1.521 1.55,-1.518 16.431,0.035 32.864,0.025 49.297,0.025 z"
       id="path16"
       inkscape:connector-curvature="0"
       style="fill:#e42b38" /><path
       d="m 138.64,502.417 c -0.029,-0.38 -0.072,-0.691 -0.073,-1.002 -0.04,-9.313 -0.075,-18.627 -0.111,-27.941 0,-0.08 0.005,-0.16 0.005,-0.239 0.005,-2.298 0.005,-2.298 2.389,-2.298 12.796,0 25.592,0.016 38.387,-0.024 1.137,-0.003 1.483,0.277 1.477,1.449 -0.047,9.597 -0.025,19.192 -0.025,28.791 0,0.393 0,0.786 0,1.266 -14.038,-0.002 -27.973,-0.002 -42.049,-0.002 z"
       id="path18"
       inkscape:connector-curvature="0"
       style="fill:#e42b38" /><path
       d="m 644.153,535.862 c 0,2.811 0.004,5.397 -10e-4,7.984 -0.004,2.199 -0.048,4.398 -0.012,6.598 0.013,0.794 -0.267,1.048 -1.039,1.031 -1.879,-0.04 -3.759,-0.012 -5.639,-0.012 -23.554,0 -47.104,0 -70.657,0 -1.732,0 -1.732,-10e-4 -1.732,-1.756 0,-4.159 0.046,-8.318 -0.028,-12.477 -0.021,-1.157 0.375,-1.392 1.428,-1.389 10.757,0.03 21.514,0.02 32.271,0.02 14.596,0 29.19,0 43.786,0 0.55,10e-4 1.104,10e-4 1.623,10e-4 z"
       id="path20"
       inkscape:connector-curvature="0"
       style="fill:#e42b38" /><path
       d="m 640.236,595.625 c -0.598,0 -1.071,0 -1.545,0 -24.032,0 -48.063,0 -72.096,0 -1.649,0 -1.647,-10e-4 -1.649,-1.611 -0.003,-4.238 0.022,-8.478 -0.034,-12.715 -0.014,-1.023 0.341,-1.29 1.31,-1.289 24.271,0.02 48.544,0.021 72.814,-0.003 1.001,-10e-4 1.289,0.311 1.278,1.299 -0.048,4.398 -0.02,8.796 -0.022,13.195 0,0.312 -0.03,0.625 -0.056,1.124 z"
       id="path22"
       inkscape:connector-curvature="0"
       style="fill:#e42b38" /><path
       d="m 631.885,617.396 c -22.417,0 -44.665,0 -67.05,0 0,-1.295 0,-2.523 0,-3.75 0,-3.559 0.024,-7.115 -0.019,-10.674 -0.011,-0.904 0.194,-1.252 1.19,-1.25 21.587,0.027 43.174,0.021 64.761,0.021 0.569,0 1.13,-0.084 1.126,0.801 -0.019,4.911 -0.008,9.823 -0.008,14.852 z"
       id="path24"
       inkscape:connector-curvature="0"
       style="fill:#e42b38" /><path
       d="m 614.552,514.406 c 0,5.251 0,10.392 0,15.641 -0.467,0.021 -0.894,0.058 -1.318,0.058 -15.592,0.002 -31.184,-0.014 -46.776,0.03 -1.23,0.004 -1.557,-0.336 -1.536,-1.541 0.065,-4.316 0.047,-8.635 0.006,-12.953 -0.011,-0.967 0.255,-1.31 1.28,-1.308 15.752,0.03 31.504,0.021 47.256,0.023 0.315,0 0.633,0.029 1.088,0.05 z"
       id="path26"
       inkscape:connector-curvature="0"
       style="fill:#e42b38" /><path
       d="m 598.559,724.812 c 0.388,-2.506 0.744,-4.859 1.116,-7.211 1.007,-6.367 2.054,-12.729 3.016,-19.104 0.422,-2.801 0.347,-2.82 3.172,-2.809 3.197,0.012 6.4,-0.08 9.591,0.086 7.153,0.371 12.229,7.145 11.11,14.201 -1.077,6.805 -6.693,13.244 -14.635,14.723 -0.468,0.086 -0.954,0.105 -1.433,0.107 -3.908,0.011 -7.819,0.007 -11.937,0.007 z m 8.535,-6.432 c 6.017,0.906 11.369,-2.6 11.68,-9.359 0.121,-2.629 -0.722,-4.811 -3.146,-6.105 -1.854,-0.992 -3.863,-1.08 -5.958,-0.83 -0.866,5.476 -1.721,10.884 -2.576,16.294 z"
       id="path28"
       inkscape:connector-curvature="0" /><path
       d="m 595.053,724.845 c -2.491,0 -4.919,0.033 -7.344,-0.043 -0.283,-0.008 -0.698,-0.563 -0.796,-0.934 -0.342,-1.305 -0.57,-2.641 -0.875,-4.119 -0.807,0 -1.594,0 -2.381,0 -2.277,0 -4.56,0.061 -6.834,-0.027 -1.04,-0.039 -1.616,0.314 -2.03,1.23 -0.394,0.869 -1.013,1.641 -1.358,2.521 -0.456,1.16 -1.203,1.465 -2.396,1.406 -2.029,-0.102 -4.068,-0.027 -6.297,-0.027 0.24,-0.514 0.396,-0.896 0.594,-1.258 4.863,-8.965 9.74,-17.926 14.59,-26.898 0.41,-0.758 0.877,-1.068 1.771,-1.033 1.995,0.08 3.996,0.049 5.994,0.01 0.792,-0.014 1.155,0.156 1.348,1.057 1.925,8.984 3.921,17.955 5.889,26.932 0.075,0.339 0.076,0.697 0.125,1.183 z m -11.761,-19.861 c -0.097,-0.01 -0.191,-0.021 -0.286,-0.029 -1.469,2.969 -2.937,5.938 -4.447,8.996 2.192,0 4.176,0 6.29,0 -0.529,-3.041 -1.043,-6.004 -1.557,-8.967 z"
       id="path30"
       inkscape:connector-curvature="0" /><path
       d="m 756.595,724.845 c -2.619,0 -5.011,0.027 -7.399,-0.033 -0.274,-0.008 -0.691,-0.459 -0.781,-0.779 -0.317,-1.146 -0.47,-2.34 -0.806,-3.48 -0.097,-0.328 -0.596,-0.76 -0.917,-0.766 -3.036,-0.059 -6.074,-0.059 -9.109,-0.002 -0.365,0.008 -0.851,0.383 -1.063,0.723 -0.734,1.182 -1.357,2.434 -2.063,3.635 -0.162,0.277 -0.477,0.66 -0.728,0.666 -2.457,0.051 -4.916,0.029 -7.591,0.029 0.559,-1.068 0.999,-1.943 1.467,-2.807 4.603,-8.469 9.219,-16.934 13.799,-25.416 0.375,-0.695 0.794,-0.967 1.579,-0.947 2.077,0.051 4.156,0.063 6.232,0 0.815,-0.023 1.113,0.307 1.27,1.031 1.683,7.85 3.379,15.697 5.076,23.543 0.321,1.47 0.66,2.937 1.034,4.603 z m -11.826,-19.836 c -0.122,-0.035 -0.244,-0.068 -0.365,-0.104 -1.484,2.994 -2.97,5.986 -4.496,9.066 2.208,0 4.23,0 6.311,0 0,-0.293 0.033,-0.527 -0.006,-0.752 -0.477,-2.737 -0.962,-5.473 -1.444,-8.21 z"
       id="path32"
       inkscape:connector-curvature="0" /><path
       d="m 665.53,697.339 c -1.262,1.871 -2.524,3.746 -3.83,5.684 -1.678,-1.318 -3.426,-2.119 -5.486,-1.768 -0.609,0.105 -1.242,0.332 -1.758,0.668 -1.757,1.146 -1.684,3.039 0.215,3.916 1.508,0.697 3.146,1.111 4.7,1.711 2.435,0.941 4.525,2.398 4.664,5.213 0.205,4.199 -1.138,7.889 -4.708,10.432 -5.087,3.623 -13.356,3.209 -18.019,-0.896 1.344,-1.943 2.695,-3.9 4.061,-5.879 0.865,0.633 1.624,1.271 2.462,1.783 1.74,1.063 3.631,1.459 5.608,0.814 0.617,-0.201 1.226,-0.611 1.687,-1.076 1.362,-1.375 1.133,-3.061 -0.575,-3.963 -0.976,-0.516 -2.076,-0.785 -3.11,-1.191 -1.331,-0.523 -2.705,-0.975 -3.964,-1.639 -1.467,-0.775 -2.214,-2.1 -2.346,-3.793 -0.485,-6.246 3.765,-11.516 9.988,-12.336 3.477,-0.459 8.248,0.594 10.411,2.32 z"
       id="path34"
       inkscape:connector-curvature="0" /><path
       d="m 522.802,722.31 c 1.344,-1.945 2.693,-3.902 3.906,-5.658 1.748,0.877 3.328,1.877 5.05,2.467 1.536,0.525 3.181,0.283 4.529,-0.813 1.709,-1.389 1.542,-3.479 -0.43,-4.432 -1.209,-0.586 -2.533,-0.941 -3.821,-1.35 -4.733,-1.496 -6.524,-3.564 -4.934,-9.385 1.54,-5.629 6.998,-9.063 12.806,-8.135 1.984,0.316 3.915,0.984 5.857,1.537 0.438,0.123 0.823,0.438 1.317,0.709 -1.31,1.947 -2.549,3.795 -3.65,5.438 -1.622,-0.531 -3.11,-1.25 -4.662,-1.439 -0.989,-0.121 -2.217,0.328 -3.084,0.904 -1.476,0.98 -1.324,2.773 0.268,3.557 1.419,0.697 2.979,1.104 4.468,1.66 2.442,0.916 4.763,2.17 5.053,5.033 0.411,4.063 -0.838,7.678 -4.066,10.361 -4.848,4.032 -13.815,3.806 -18.607,-0.454 z"
       id="path36"
       inkscape:connector-curvature="0" /><path
       d="m 501.396,724.843 c 1.555,-9.803 3.076,-19.389 4.61,-29.063 5.48,0 10.932,0 16.563,0 -0.292,1.961 -0.55,3.875 -0.899,5.771 -0.036,0.197 -0.615,0.412 -0.945,0.418 -2.397,0.035 -4.797,0.037 -7.194,0.01 -0.717,-0.01 -1.075,0.145 -1.146,0.965 -0.111,1.301 -0.387,2.588 -0.62,4.059 2.897,0 5.706,0 8.593,0 -0.347,2.172 -0.665,4.17 -1.006,6.309 -2.845,0 -5.664,0 -8.583,0 -0.283,1.766 -0.545,3.402 -0.832,5.193 3.038,0 5.934,0 9.042,0 -0.318,2.061 -0.599,3.963 -0.93,5.857 -0.033,0.188 -0.375,0.461 -0.575,0.461 -5.305,0.026 -10.613,0.02 -16.078,0.02 z"
       id="path38"
       inkscape:connector-curvature="0" /><path
       d="m 726.135,705.056 c -3.231,-3.021 -6.491,-3.688 -9.873,-2.086 -3.591,1.699 -5.861,5.57 -5.587,9.523 0.223,3.197 2.698,5.617 5.896,5.844 2.55,0.182 4.802,-0.541 6.833,-2.043 0.251,-0.186 0.502,-0.371 1.043,-0.77 -0.224,1.512 -0.396,2.732 -0.587,3.951 -0.223,1.412 -0.444,2.826 -0.71,4.23 -0.051,0.268 -0.247,0.648 -0.463,0.723 -5.461,1.871 -10.736,1.932 -15.503,-1.859 -3.729,-2.965 -4.982,-7.002 -4.324,-11.543 1.175,-8.113 6.718,-13.902 14.771,-15.799 3.133,-0.736 6.154,-0.344 9.137,0.758 0.625,0.229 0.773,0.592 0.676,1.178 -0.434,2.583 -0.858,5.169 -1.309,7.893 z"
       id="path40"
       inkscape:connector-curvature="0" /><path
       d="m 671.082,724.843 c 1.216,-7.674 2.402,-15.168 3.614,-22.82 -2.111,0 -4.129,0 -6.302,0 0.328,-2.037 0.606,-3.912 0.959,-5.771 0.043,-0.225 0.477,-0.537 0.729,-0.537 6.357,-0.021 12.716,-0.008 19.072,0.006 0.108,0 0.216,0.084 0.358,0.143 -0.323,2.006 -0.646,4.004 -0.986,6.129 -1.782,0 -3.533,0.031 -5.282,-0.014 -0.792,-0.021 -1.058,0.213 -1.186,1.051 -1.064,7.004 -2.196,13.998 -3.34,20.988 -0.05,0.303 -0.402,0.785 -0.624,0.791 -2.302,0.056 -4.609,0.034 -7.012,0.034 z"
       id="path42"
       inkscape:connector-curvature="0" /><path
       d="m 556.199,701.984 c -2.193,0 -4.215,0 -6.305,0 0.346,-2.143 0.669,-4.139 1.004,-6.211 6.694,0 13.347,0 20.129,0 -0.341,2.109 -0.667,4.131 -1.003,6.217 -1.827,0 -3.544,0.039 -5.257,-0.018 -0.805,-0.025 -1.106,0.244 -1.229,1.041 -1.106,7.16 -2.253,14.314 -3.39,21.471 -0.012,0.072 -0.058,0.143 -0.12,0.291 -2.427,0 -4.885,0 -7.427,0 1.198,-7.584 2.385,-15.108 3.598,-22.791 z"
       id="path44"
       inkscape:connector-curvature="0" /><path
       d="m 363.971,722.259 c -0.163,0.895 -0.296,1.627 -0.451,2.479 -0.998,0 -2.046,0 -3.273,0 0.292,-1.932 0.568,-3.84 0.87,-5.746 1.006,-6.371 2.023,-12.74 3.032,-19.111 0.492,-3.105 0.984,-6.215 1.458,-9.324 0.094,-0.615 0.351,-0.912 1.015,-0.871 0.788,0.047 1.582,0.012 2.461,0.012 -0.945,6.002 -1.869,11.871 -2.827,17.957 0.981,-0.727 1.736,-1.363 2.565,-1.883 3.696,-2.314 8.515,-1.83 11.077,1.107 1.901,2.182 2.246,4.82 1.924,7.539 -0.415,3.506 -1.976,6.482 -4.764,8.691 -4.322,3.422 -8.945,3.137 -13.087,-0.85 z m 0.853,-6.156 c -0.042,5.188 4.369,7.91 8.961,5.479 3.157,-1.672 4.475,-4.551 4.717,-7.947 0.255,-3.592 -2.146,-6.748 -6.71,-6.168 -3.82,0.484 -6.933,4.318 -6.968,8.636 z"
       id="path46"
       inkscape:connector-curvature="0" /><path
       d="m 458.164,707.501 c 0.897,-5.592 1.823,-11.123 2.642,-16.67 0.141,-0.957 0.464,-1.227 1.339,-1.154 0.63,0.053 1.267,0.012 2.112,0.012 -0.219,1.586 -0.396,3.063 -0.627,4.529 -1.01,6.363 -2.038,12.725 -3.052,19.088 -0.574,3.613 -1.122,7.23 -1.721,10.84 -0.043,0.262 -0.39,0.646 -0.624,0.67 -0.86,0.08 -1.733,0.029 -2.722,0.029 0.098,-0.893 0.18,-1.627 0.291,-2.641 -0.46,0.361 -0.75,0.582 -1.034,0.813 -2.603,2.1 -5.532,3.016 -8.815,2.154 -3.396,-0.893 -5.187,-3.363 -5.652,-6.695 -0.771,-5.52 2.383,-11.631 7.821,-13.559 3.242,-1.148 7.453,-0.818 9.677,2.5 0.029,0.045 0.142,0.036 0.365,0.084 z m -0.862,5.889 c 0.188,-4.473 -3.547,-6.939 -7.755,-5.695 -3.684,1.09 -6.019,4.902 -5.902,8.787 0.067,2.273 0.806,4.383 3.1,5.393 2.386,1.049 4.703,0.633 6.786,-0.859 2.598,-1.86 3.615,-4.544 3.771,-7.626 z"
       id="path48"
       inkscape:connector-curvature="0" /><path
       d="m 274.612,699.103 c -1.795,-1.037 -3.49,-2.389 -5.42,-3.059 -4.391,-1.521 -8.519,-0.469 -12.183,2.223 -4.471,3.283 -7.066,7.609 -6.924,13.338 0.142,5.67 4.963,10.447 10.627,10.59 3.778,0.094 7.002,-1.283 9.979,-3.443 0.188,-0.135 0.373,-0.273 0.87,-0.641 -0.193,1.281 -0.434,2.258 -0.465,3.242 -0.043,1.313 -1.091,1.553 -1.931,1.973 -4.546,2.27 -9.23,2.98 -14.081,1.021 -6.128,-2.475 -9.417,-8.76 -8.417,-15.307 1.166,-7.629 7.829,-14.877 15.879,-16.504 4.271,-0.861 8.346,-0.445 11.96,2.225 0.32,0.236 0.57,0.822 0.543,1.227 -0.071,1.133 -0.306,2.256 -0.437,3.115 z"
       id="path50"
       inkscape:connector-curvature="0" /><path
       d="m 640.846,695.685 c -1.563,9.838 -3.088,19.449 -4.621,29.105 -2.523,0 -4.941,0 -7.513,0 0.423,-2.664 0.834,-5.242 1.24,-7.82 0.999,-6.328 2.021,-12.65 2.98,-18.982 0.347,-2.289 0.275,-2.299 2.624,-2.301 1.712,-0.002 3.421,-0.002 5.29,-0.002 z"
       id="path52"
       inkscape:connector-curvature="0" /><path
       d="m 696.187,724.773 c -2.564,0 -5.022,0 -7.533,0 0.791,-4.918 1.576,-9.746 2.342,-14.576 0.761,-4.787 1.499,-9.576 2.259,-14.434 2.52,0 4.977,0 7.532,0 -1.534,9.676 -3.058,19.285 -4.6,29.01 z"
       id="path54"
       inkscape:connector-curvature="0" /><path
       d="m 469.298,715.617 c -0.316,2.316 0.08,4.25 1.897,5.613 2.008,1.504 4.282,1.635 6.422,0.484 1.51,-0.811 2.771,-2.08 4.287,-3.258 0.563,0.354 1.363,0.854 2.16,1.352 -2.421,4.449 -8.734,6.844 -13.371,5.08 -3.666,-1.393 -5.064,-4.545 -4.979,-8.068 0.073,-2.996 1.025,-5.791 2.908,-8.197 2.68,-3.424 6.247,-4.738 10.476,-4.162 3.425,0.467 5.915,3.332 6.173,6.932 0.098,1.373 0.016,2.758 0.016,4.225 -5.52,-0.001 -10.707,-0.001 -15.989,-0.001 z m 0.696,-2.825 c 2.055,0 4.011,0 5.967,0 1.981,0 3.964,0 5.93,0 0.178,-2.889 -1.748,-5.043 -4.638,-5.389 -2.938,-0.351 -6.712,2.382 -7.259,5.389 z"
       id="path56"
       inkscape:connector-curvature="0" /><path
       d="m 352.414,707.244 c -0.088,0.199 -0.047,0.131 -0.025,0.057 0.222,-0.785 0.229,-2.035 0.706,-2.25 0.826,-0.373 1.94,-0.104 3.035,-0.104 -1.047,6.604 -2.089,13.184 -3.142,19.83 -1.079,0 -2.097,0 -3.253,0 0.083,-0.801 0.16,-1.551 0.267,-2.58 -0.552,0.443 -0.88,0.713 -1.21,0.977 -2.525,2.006 -5.361,2.762 -8.527,2.035 -3.28,-0.752 -5.733,-3.771 -5.832,-7.6 -0.131,-5.057 1.806,-9.199 6.229,-11.898 2.305,-1.406 4.91,-1.883 7.479,-1.002 1.51,0.521 2.816,1.646 4.273,2.535 z m -14.495,8.822 c -0.108,0.037 -0.217,0.074 -0.324,0.113 0.479,1.359 0.735,2.861 1.488,4.051 1.584,2.5 5.329,2.928 8.247,1.08 2.613,-1.654 3.823,-4.164 4.157,-7.176 0.536,-4.82 -3.058,-7.703 -7.544,-6.486 -3.563,0.969 -5.985,4.455 -6.024,8.418 z"
       id="path58"
       inkscape:connector-curvature="0" /><path
       d="m 295.329,707.568 c 0.172,-0.904 0.331,-1.738 0.499,-2.623 1.058,0 2.081,0 3.275,0 -1.052,6.637 -2.095,13.207 -3.146,19.832 -1.147,0 -2.204,0 -3.274,0 0.099,-0.822 0.188,-1.564 0.306,-2.553 -0.679,0.527 -1.184,0.939 -1.708,1.324 -3.446,2.545 -8.008,2.592 -11.085,0.086 -1.415,-1.152 -2.141,-2.719 -2.56,-4.471 -1.354,-5.666 2.324,-12.514 7.813,-14.26 3.595,-1.145 6.937,-0.838 9.473,2.406 0.064,0.087 0.186,0.124 0.407,0.259 z m -0.79,5.707 c -0.054,-5.041 -4.268,-6.816 -8.114,-5.486 -3.354,1.162 -5.625,4.748 -5.586,8.559 0.045,4.592 3.637,7.135 7.982,5.654 3.356,-1.143 5.725,-4.76 5.718,-8.727 z"
       id="path60"
       inkscape:connector-curvature="0" /><path
       d="m 218.891,704.333 c 6.351,0.035 10.325,5.521 8.566,11.826 -1.399,5.02 -5.998,8.949 -11.157,9.293 -6.401,0.428 -10.809,-4.514 -9.592,-10.992 1.051,-5.585 6.504,-10.158 12.183,-10.127 z m 5.591,9.301 c 0.022,-4.035 -2.868,-6.627 -6.89,-6.176 -4.406,0.494 -7.83,4.418 -7.738,8.867 0.063,3.01 1.758,5.223 4.495,5.867 5.059,1.19 10.101,-3.069 10.133,-8.558 z"
       id="path62"
       inkscape:connector-curvature="0" /><path
       d="m 413.296,704.332 c 5.641,-0.047 10.081,4.359 8.775,11.068 -1.063,5.471 -5.728,9.604 -11.239,10.039 -5.665,0.447 -10.761,-3.445 -9.693,-10.695 0.842,-5.733 6.364,-10.387 12.157,-10.412 z M 404.4,716.13 c -0.012,4.068 2.802,6.643 6.841,6.256 4.446,-0.426 7.966,-4.77 7.684,-9.271 -0.22,-3.475 -2.66,-5.834 -6.201,-5.752 -4.69,0.107 -8.31,4.033 -8.324,8.767 z"
       id="path64"
       inkscape:connector-curvature="0" /><path
       d="m 96.552,724.855 c 1.064,-6.717 2.104,-13.273 3.154,-19.895 1.058,0 2.08,0 3.247,0 -0.064,0.693 -0.129,1.373 -0.22,2.342 0.505,-0.447 0.822,-0.719 1.129,-1.002 2.021,-1.861 4.449,-2.291 7.03,-1.791 2.521,0.49 3.862,2.385 3.797,5.451 -0.04,1.859 -0.397,3.717 -0.673,5.568 -0.457,3.063 -0.963,6.123 -1.458,9.246 -1.104,0 -2.123,0 -3.292,0 0.273,-1.805 0.542,-3.553 0.805,-5.303 0.414,-2.754 0.885,-5.502 1.22,-8.266 0.356,-2.938 -1.989,-4.521 -5.227,-3.613 -1.563,0.438 -2.792,1.402 -3.284,2.9 -0.714,2.178 -1.23,4.432 -1.684,6.684 -0.439,2.184 -0.711,4.398 -1.02,6.605 -0.113,0.813 -0.44,1.188 -1.316,1.086 -0.7,-0.078 -1.419,-0.012 -2.208,-0.012 z"
       id="path66"
       inkscape:connector-curvature="0" /><path
       d="m 306.677,724.775 c -1.146,0 -2.166,0 -3.313,0 0.383,-2.443 0.749,-4.793 1.121,-7.143 0.604,-3.814 1.249,-7.623 1.794,-11.445 0.14,-0.971 0.409,-1.449 1.465,-1.314 0.664,0.084 1.349,0.016 2.032,0.016 -0.077,0.748 -0.144,1.41 -0.232,2.277 0.673,-0.531 1.187,-0.945 1.708,-1.348 1.943,-1.506 4.184,-1.766 6.479,-1.299 2.66,0.541 3.998,2.652 3.68,5.979 -0.313,3.285 -0.875,6.545 -1.344,9.813 -0.176,1.221 -0.449,2.43 -0.577,3.652 -0.067,0.652 -0.271,0.932 -0.94,0.896 -0.752,-0.037 -1.508,-0.01 -2.494,-0.01 0.243,-1.584 0.47,-3.051 0.69,-4.52 0.438,-2.912 0.959,-5.816 1.288,-8.742 0.455,-4.051 -2.313,-4.676 -5.27,-3.953 -1.965,0.482 -3.144,1.967 -3.617,3.818 -0.688,2.688 -1.154,5.436 -1.665,8.168 -0.31,1.68 -0.53,3.376 -0.805,5.155 z"
       id="path68"
       inkscape:connector-curvature="0" /><path
       d="m 191.535,704.888 c -0.734,4.439 -1.311,8.779 -2.193,13.059 -1.288,6.248 -5.952,8.361 -11.519,7.24 -2.669,-0.539 -4.32,-2.738 -4.183,-5.885 0.113,-2.609 0.609,-5.207 0.978,-7.803 0.262,-1.852 0.626,-3.688 0.873,-5.541 0.101,-0.758 0.317,-1.164 1.171,-1.084 0.748,0.068 1.507,0.014 2.303,0.014 -0.64,4.227 -1.26,8.354 -1.891,12.479 -0.401,2.627 0.274,4.25 2.015,4.793 2.646,0.826 5.405,-0.115 6.282,-2.445 0.692,-1.838 1.026,-3.828 1.379,-5.775 0.489,-2.701 0.851,-5.426 1.26,-8.139 0.096,-0.633 0.345,-1 1.09,-0.928 0.75,0.072 1.512,0.015 2.435,0.015 z"
       id="path70"
       inkscape:connector-curvature="0" /><path
       d="m 118.881,720.558 c 1.329,-0.525 2.318,-0.918 3.363,-1.33 0.168,0.398 0.295,0.725 0.442,1.041 0.747,1.604 2.072,2.346 3.764,2.111 1.738,-0.242 2.991,-1.494 3.263,-3.182 0.192,-1.193 -0.319,-2.041 -1.279,-2.594 -1.104,-0.637 -2.27,-1.16 -3.417,-1.715 -3.254,-1.57 -3.717,-4.162 -2.075,-7.156 1.336,-2.439 4.3,-3.771 7.034,-3.316 1.582,0.264 2.959,1.561 3.688,3.535 -0.947,0.463 -1.904,0.932 -2.856,1.396 -1.453,-2.07 -2.698,-2.465 -4.315,-1.387 -1.571,1.049 -1.605,2.803 -0.018,3.803 0.804,0.506 1.693,0.883 2.565,1.27 5.063,2.252 5.668,7.146 1.31,10.674 -2.948,2.387 -7.324,2.396 -9.604,-0.096 -0.749,-0.818 -1.188,-1.919 -1.865,-3.054 z"
       id="path72"
       inkscape:connector-curvature="0" /><path
       d="m 88.967,724.783 c -1.171,0 -2.271,0 -3.49,0 1.699,-10.73 3.386,-21.371 5.08,-32.063 1.163,0 2.271,0 3.486,0 -1.687,10.653 -3.37,21.287 -5.076,32.063 z"
       id="path74"
       inkscape:connector-curvature="0" /><path
       d="m 144.327,707.955 c -0.673,4.215 -1.333,8.332 -1.985,12.449 -0.187,1.18 -0.354,2.359 -0.527,3.543 -0.093,0.631 -0.358,0.99 -1.097,0.922 -0.746,-0.07 -1.504,-0.016 -2.393,-0.016 0.895,-5.672 1.767,-11.217 2.651,-16.828 -0.724,-0.051 -1.307,-0.094 -2.021,-0.145 0.139,-0.998 0.268,-1.926 0.389,-2.801 0.151,-0.082 0.217,-0.148 0.286,-0.152 1.791,-0.129 1.815,-0.123 2.139,-1.9 0.317,-1.752 0.578,-3.516 0.869,-5.305 1.137,0 2.162,0 3.28,0 -0.361,2.369 -0.715,4.676 -1.088,7.117 1.166,0 2.262,0 3.541,0 -0.145,0.99 -0.219,1.844 -0.425,2.664 -0.052,0.205 -0.525,0.412 -0.816,0.43 -0.909,0.057 -1.824,0.022 -2.803,0.022 z"
       id="path76"
       inkscape:connector-curvature="0" /><path
       d="m 199.157,724.777 c -1.131,0 -2.15,0 -3.319,0 0.888,-5.623 1.759,-11.15 2.642,-16.754 -0.715,-0.045 -1.375,-0.088 -2.079,-0.131 0.173,-1.01 0.334,-1.945 0.51,-2.971 0.662,0 1.288,0 2.041,0 0.354,-2.18 0.735,-4.279 1.019,-6.395 0.09,-0.676 0.331,-0.896 0.977,-0.865 0.751,0.035 1.506,0.008 2.469,0.008 -0.366,2.42 -0.714,4.715 -1.084,7.156 1.197,0 2.332,0 3.566,0 -0.178,1.109 -0.332,2.07 -0.502,3.131 -0.878,0 -1.714,0.049 -2.542,-0.014 -0.8,-0.061 -1.112,0.234 -1.233,1.033 -0.792,5.239 -1.628,10.466 -2.465,15.802 z"
       id="path78"
       inkscape:connector-curvature="0" /><path
       d="m 330.41,724.802 c -1.101,0 -2.089,0 -3.31,0 0.88,-5.617 1.748,-11.16 2.628,-16.779 -0.723,-0.043 -1.348,-0.08 -2.078,-0.125 0.18,-1.02 0.349,-1.975 0.522,-2.959 0.725,-0.039 1.353,-0.07 2.058,-0.107 0.38,-2.35 0.754,-4.656 1.144,-7.061 1.034,0 2.085,0 3.285,0 -0.355,2.346 -0.706,4.648 -1.075,7.082 1.237,0 2.381,0 3.558,0 -0.163,1.066 -0.306,2.014 -0.473,3.104 -0.897,0 -1.808,0.037 -2.711,-0.012 -0.719,-0.037 -0.958,0.264 -1.063,0.945 -0.801,5.266 -1.638,10.526 -2.485,15.912 z"
       id="path80"
       inkscape:connector-curvature="0" /><path
       d="m 165.057,724.779 c -1.083,0 -2.101,0 -3.321,0 0.88,-5.598 1.748,-11.115 2.632,-16.742 -0.7,-0.053 -1.354,-0.104 -2.074,-0.158 0.173,-0.996 0.334,-1.93 0.514,-2.957 0.67,0 1.296,0 2.042,0 0.395,-2.416 0.775,-4.752 1.171,-7.168 1.031,0 2.049,0 3.27,0 -0.35,2.342 -0.695,4.666 -1.06,7.1 1.229,0 2.337,0 3.541,0 -0.161,1.07 -0.305,2.031 -0.466,3.109 -0.979,0 -1.936,-0.059 -2.877,0.033 -0.308,0.029 -0.784,0.42 -0.83,0.705 -0.871,5.3 -1.689,10.609 -2.542,16.078 z"
       id="path82"
       inkscape:connector-curvature="0" /><path
       d="m 392.265,704.888 c -0.049,0.701 -0.088,1.254 -0.151,2.154 2.284,-2.512 4.706,-3.611 7.782,-1.822 -0.677,1 -1.32,1.953 -1.959,2.896 -2.858,-1.273 -4.859,-0.625 -5.936,2.359 -0.854,2.365 -1.225,4.916 -1.712,7.404 -0.404,2.066 -0.646,4.164 -1.019,6.236 -0.05,0.273 -0.427,0.666 -0.687,0.695 -0.82,0.09 -1.656,0.031 -2.673,0.031 0.208,-1.494 0.377,-2.854 0.591,-4.211 0.78,-4.945 1.584,-9.891 2.356,-14.84 0.093,-0.596 0.258,-0.957 0.954,-0.916 0.795,0.049 1.593,0.014 2.454,0.014 z"
       id="path84"
       inkscape:connector-curvature="0" /><path
       d="m 153.176,704.962 c 1.212,0 2.233,0 3.317,0 -1.053,6.639 -2.093,13.193 -3.144,19.814 -1.092,0 -2.111,0 -3.315,0 1.051,-6.628 2.093,-13.202 3.142,-19.814 z"
       id="path86"
       inkscape:connector-curvature="0" /><path
       d="m 632.999,690.246 c 2.327,-2.174 4.53,-4.234 6.81,-6.363 1.038,0.852 2.227,1.826 3.502,2.871 -2.413,1.875 -4.726,3.689 -7.071,5.461 -0.188,0.143 -0.688,0.088 -0.904,-0.066 -0.743,-0.53 -1.424,-1.146 -2.337,-1.903 z"
       id="path88"
       inkscape:connector-curvature="0" /><path
       d="m 295.794,694.73 c -2.556,2.221 -5.007,4.354 -7.5,6.52 -0.586,-0.365 -1.146,-0.717 -1.855,-1.16 2.079,-2.354 4.091,-4.635 6.127,-6.941 1.076,0.524 2.088,1.02 3.228,1.581 z"
       id="path90"
       inkscape:connector-curvature="0" /><path
       d="m 158.439,696.919 c -0.018,1.477 -1.291,2.689 -2.799,2.668 -1.236,-0.018 -2.006,-0.805 -1.979,-2.029 0.029,-1.398 1.42,-2.754 2.804,-2.729 1.173,0.02 1.988,0.883 1.974,2.09 z"
       id="path92"
       inkscape:connector-curvature="0" /></g></svg>